<svg version="1.2" xmlns="http://www.w3.org/2000/svg" viewBox="0 0 1569 383" width="1569" height="383">
	<title>omni-logo-r-svg</title>
	<style>
		.s0 { fill: #46b555 } 
	</style>
	<g id="omnicell-logo-r-hz-grn-rgb__x3C_Group_x3E_">
		<path id="Layer" fill-rule="evenodd" class="s0" d="m372 116.5c20 45.5 20 105.5 0 151-10 23.6-23.7 43.6-40.9 60.9-17.3 17.3-37.3 30-61 40-46.3 19.1-106.3 19.1-152.7 0-22.7-9-43.7-22.7-60.9-40-17.3-17.3-31-37.3-41-60.9-20-45.5-20-105.5 0-151 10-23.6 23.7-43.6 41-60.9 18.1-17.3 38.2-30 60.9-40 23.6-10.1 49.1-14.6 76.4-14.6 52.7-0.9 101.8 19.1 138.2 54.6 18.2 17.3 31.8 37.3 40 60.9zm-52.8-26.4c-2.7-6.3-5.4-11.8-10-16.3-4.5-3.7-10-7.3-15.4-10-10.9-4.6-26.4-4.6-38.2 0-6.4 1.8-10.9 5.4-15.5 10-4.5 4.5-7.2 10-10 16.3-4.5 12.8-4.5 29.1 0 41 1.8 6.3 5.5 11.8 10 16.3 4.6 4.6 10 8.2 15.5 10.9 3.6 1.9 8.2 2.8 11.8 3.7 1.8 0 2.7 0.9 3.6 2.7 2.8 8.2 4.6 17.3 4.6 26.4 0 1.8-1.8 3.6-4.6 3.6-9-0.9-18.1-2.7-27.2-6.3-9.1-3.7-18.2-10-25.5-17.3-7.3-7.3-13.6-16.4-17.3-26.4-5.4-14.5-7.2-31.8-4.5-48.2-13.7 0-28.2 1.8-40 7.3-11.8 4.5-21.8 11.8-30.9 20-9.1 8.2-16.4 18.2-20.9 30-10 22.7-10 52.8 0 75.5 5.4 10.9 11.8 21.8 20.9 30 9.1 8.2 19.1 15.5 30.9 20 22.7 10 53.6 10 76.4 0 11.8-4.5 21.8-11.8 30.9-20 9.1-8.2 16.3-18.2 20.9-30 10-22.7 10-52.8 0-75.5-5.5-10.9-11.8-21.8-20.9-30-5.5-5.5-11.8-10-18.2-13.7-0.9 0-1.8-1.8-1.8-3.6 0-2.7 0.9-5.5 1.8-8.2 0.9-4.5 3.6-8.2 6.4-10.9 1.8-1.8 4.5-3.6 6.3-4.5 1.8-1 3.7-1 4.6 0 8.1 5.4 16.3 10.9 23.6 18.1q17.7 17.8 27.3 41c0 0.9 0.9 0.9 0.9 1.8q2.7-5.5 5.4-10.9c4.6-11.8 4.6-28.2-0.9-42.8z"/>
		<path id="Layer" fill-rule="evenodd" class="s0" d="m655.7 154.7c4.5 11.8 7.2 24.6 7.2 38.2 0 13.7-2.7 26.4-7.2 38.2-5.5 11.8-11.9 21.8-21 30-9 8.2-19 15.5-30.9 20-11.8 4.6-24.5 7.3-38.2 7.3-13.6 0-26.3-2.7-38.1-7.3-11.9-4.5-21.9-11.8-31-20-9.1-8.2-16.3-18.2-20.9-30-4.5-11.8-7.2-24.5-7.2-38.2 0-13.6 2.7-26.4 7.2-38.2 5.5-11.8 11.8-21.8 20.9-30 9.1-8.2 19.1-15.5 31-20 11.8-4.6 24.5-7.3 38.1-7.3 13.7 0 26.4 2.7 38.2 7.3 11.9 4.5 21.9 11.8 30.9 20 8.2 8.2 15.5 18.2 21 30zm-26.4 38.2c0-10-0.9-19.1-4.6-27.3-3.6-8.2-8.1-15.4-13.6-20.9-5.4-5.5-11.8-10-20-13.6-8.2-2.8-16.4-4.6-25.5-4.6-9 0-17.2 0.9-25.4 4.6-7.3 2.7-14.6 8.1-20 13.6-6.4 5.5-10.9 12.7-13.7 20.9-2.7 9.1-4.5 17.3-4.5 27.3 0 9.1 1.8 18.2 4.5 26.4 3.7 8.2 8.2 15.4 13.7 20.9 5.4 5.5 11.8 10 20 13.6 8.2 3.7 16.4 5.5 25.4 5.5 9.1 0 17.3-1.8 25.5-5.5 7.3-2.7 14.6-8.1 20-13.6 6.4-5.5 10-12.7 13.6-20.9 2.8-8.2 4.6-17.3 4.6-26.4z"/>
		<path id="Layer" class="s0" d="m898.4 175.6c2.8 6.4 4.6 13.7 4.6 21.9v85.5h-30v-74.6c0-12.8-2.8-20.9-8.2-26.4q-8.2-8.2-21.8-8.2c-9.1 0-16.4 3.6-22.8 9.1-6.3 5.5-9.1 15.5-9.1 28.2v71.9h-30v-72.8c0-12.7-2.7-22.7-9.1-28.2-6.3-6.4-13.6-9.1-22.7-9.1q-13.6 0-21.8 8.2c-5.5 5.4-8.2 14.5-8.2 26.4v75.5h-30v-85.5c0-8.2 1.8-15.5 4.5-21.9 3.7-6.3 7.3-10.9 12.8-15.4 5.4-4.6 10.9-8.2 18.2-10 6.3-2.8 14.5-3.7 22.7-3.7 10.9 0 20.9 2.8 29.1 6.4 9.1 4.5 15.4 10 20.9 18.2 4.5-8.2 11.8-14.6 20-18.2 9.1-4.6 18.2-6.4 29.1-6.4 8.2 0 15.5 0.9 22.7 3.7 7.3 1.8 12.8 4.5 18.2 9.1q8.2 6.8 10.9 16.3z"/>
		<path id="Layer" class="s0" d="m1059.4 179.3c2.7 7.2 4.5 14.5 4.5 23.6v80.1h-30v-72.8c0-11.8-3.6-20.9-9.1-27.3-5.4-6.4-14.5-9.1-25.4-9.1-11 0-20 2.7-25.5 9.1q-8.2 9.6-8.2 27.3v72.8h-30v-80.1c0-9.1 0.9-16.4 4.6-23.6 3.6-6.4 8.1-12.8 13.6-17.3 5.4-4.6 11.8-8.2 20-10.9 7.3-2.8 16.4-3.7 25.5-3.7 9 0 17.2 0.9 25.4 3.7 8.2 2.7 15.5 6.3 20.9 10.9 5.5 4.5 10 10 13.7 17.3z"/>
		<path id="Layer" class="s0" d="m1118.5 151.1c2.7 0.9 4.5 1.8 5.4 1.8v130.1h-30v-118.3c0-5.4 1.8-9.1 4.6-10.9 2.7-2.7 6.3-3.6 11.8-3.6 2.7 0 6.3 0.9 8.2 0.9z"/>
		<path id="Layer" class="s0" d="m1123 95.6c3.6 3.6 4.6 9.1 4.6 13.6 0 4.6-1 10-4.6 13.7-2.7 2.7-7.3 4.5-13.6 4.5-6.4 0-10.9-0.9-13.7-4.5-3.6-3.7-4.5-9.1-4.5-13.7 0-4.5 0.9-10 4.5-13.6 2.8-2.7 7.3-4.6 13.7-4.6 5.4 0 10 1.9 13.6 4.6z"/>
		<path id="Layer" class="s0" d="m1261.2 248.4l12.7 22.7c-2.7 1.8-5.4 2.8-8.1 4.6-3.7 1.8-7.3 3.6-10.9 4.5-4.6 1.8-8.2 2.8-13.7 3.7-5.4 0.9-10.9 0.9-17.3 0.9-10 0-20-1.8-28.1-4.6-8.2-3.6-16.4-8.2-22.8-13.6-6.3-6.4-11.8-13.7-15.4-21.8q-5.5-13.7-5.5-30.1 0-16.3 5.5-30c3.6-8.2 9.1-15.4 15.4-21.8 6.4-6.4 13.7-10.9 22.8-13.6 9-2.8 19-4.6 29-4.6 8.2 0 15.5 0 21.9 1.8 5.4 1.8 10.9 3.7 14.5 5.5 3.7 1.8 6.4 4.5 8.2 7.3q2.7 4 2.7 8.1c0 3.7-0.9 7.3-3.6 10-1.8 3.7-4.6 5.5-6.4 7.3q-4.1-4.1-13.6-8.2c-5.5-2.7-12.7-4.5-21.8-4.5q-8.2 0-16.4 2.7-8.2 2.7-13.6 8.2c-3.7 3.6-7.3 8.2-9.1 13.6-2.8 5.5-3.7 11.9-3.7 19.1 0 8.2 0.9 14.6 3.7 20.1 1.8 5.4 5.4 10 9.1 13.6q5.4 5.5 13.6 8.2c5.5 1.8 10.9 2.7 17.3 2.7 8.2 0 15.4-0.9 20.9-3.6 5.4-2.8 9.1-4.6 12.7-8.2z"/>
		<path id="Layer" fill-rule="evenodd" class="s0" d="m1407.6 175.6c2.7 5.5 3.6 10.9 3.6 17.3 0 5.5-0.9 10.9-3.6 16.4-1.8 4.5-6.4 9.1-11.8 12.7-6.4 3.7-13.7 6.4-23.7 8.2-10 1.8-21.8 2.7-37.2 2.7-3.7 0-7.3 0-10 0-2.8 0-6.4 0-10 0 0.9 9.1 5.4 16.4 12.7 21.9 7.3 5.4 17.3 8.1 30.9 8.1 4.6 0 9.1 0 12.7-0.9 3.7-0.9 7.3-1.8 10-2.7q5.5-1.4 8.2-2.7c1.8-1.8 3.7-1.8 4.6-2.8l10.9 21c-0.9 0.9-3.7 1.8-6.4 3.6-2.7 1.8-6.3 2.7-10.9 4.6-4.5 0.9-10 2.7-15.5 3.6-5.4 0.9-11.8 1.8-19 1.8-9.1 0-19.1-1.8-27.3-4.5-9.1-3.7-16.4-8.2-22.8-13.7-6.3-6.3-11.8-13.6-15.4-21.8-3.7-8.2-5.5-18.2-5.5-29.1 0-10.9 1.8-20 5.5-29.1 3.6-9.1 9.1-16.4 15.4-22.8 6.4-6.3 13.7-10.9 22.8-14.5 9.1-3.6 19.1-5.5 29.1-5.5 9.1 0 17.2 0.9 24.5 3.7 7.3 1.8 13.7 5.4 18.2 9.1 4.6 3.6 8.2 8.2 10 15.4zm-23.6 14.6c0-7.3-2.8-11.8-8.2-15.5-5.5-3.6-11.8-5.4-20-5.4-6.4 0-12.7 0.9-17.3 3.6-5.5 1.8-9.1 5.5-12.7 9.1-3.7 3.6-6.4 8.2-8.2 12.7-1.8 5.5-2.7 10-2.7 15.5 4.5 0 8.1 0 11.8 0q5.4 0 10.9 0c10 0 17.3-0.9 23.6-1.8 5.5-0.9 10-2.8 13.7-4.6 2.7-1.8 5.4-3.6 6.3-6.3 0.9-1.9 1.9-4.6 2.8-7.3z"/>
		<path id="Layer" class="s0" d="m1463.1 89.2c2.7 0.9 4.5 1.8 5.4 1.8v192h-30v-180.1c0-5.5 1.8-8.2 4.6-10.9 2.7-2.8 6.3-3.7 11.8-3.7 2.7 0 5.4 0 8.2 0.9z"/>
		<path id="Layer" class="s0" d="m1525.8 91v192h-30v-180.1c0-5.5 1.8-8.2 4.6-10.9 2.7-2.8 6.3-3.7 11.8-3.7 3.6 0 6.3 0 9.1 0.9 2.7 0.9 4.5 1.8 4.5 1.8z"/>
		<g id="Layer">
			<path id="Layer" fill-rule="evenodd" class="s0" d="m1544 118.3c-2.7-1.8-4.6-3.6-6.4-5.4-1.8-2.8-1.8-5.5-1.8-8.2 0-2.7 0.9-5.5 1.8-8.2 1.8-2.7 3.7-4.5 6.4-5.5 2.7-1.8 5.5-1.8 8.2-1.8 2.7 0 5.4 0.9 8.2 1.8 2.7 1.9 4.5 3.7 6.3 5.5 1.8 2.7 1.8 5.5 1.8 8.2 0 2.7-0.9 5.4-1.8 8.2-1.8 2.7-3.6 4.5-6.3 5.4-2.8 1.8-5.5 1.8-8.2 1.8-2.7 0-5.5 0-8.2-1.8zm15.5-1.8c1.8-0.9 3.6-2.7 4.5-4.5 0.9-1.9 1.8-4.6 1.8-7.3 0-2.7-0.9-4.6-1.8-7.3-0.9-1.8-2.7-3.6-4.5-4.5-1.9-0.9-4.6-1.9-7.3-1.9-2.7 0-4.6 1-7.3 1.9-1.8 0.9-3.6 2.7-4.5 4.5-1 1.8-1.9 4.6-1.9 7.3 0 2.7 0.9 4.5 1.9 7.3 0.9 1.8 2.7 3.6 4.5 4.5 1.8 0.9 4.6 1.8 7.3 1.8 2.7 0 5.4-0.9 7.3-1.8zm-12.8-20.9h6.4c1.8 0 3.6 0.9 4.5 1.8 0.9 0.9 1.9 2.7 1.9 3.6 0 1 0 1.9-1 2.8-0.9 0.9-1.8 1.8-2.7 1.8l4.6 7.3h-3.7l-3.6-6.4h-2.7v6.4h-3.7zm6.4 8.2c0.9 0 1.8 0 1.8-1 0.9-0.9 0.9-0.9 0.9-1.8 0-0.9 0-0.9-0.9-1.8-0.9 0-0.9-0.9-1.8-0.9h-3.6v5.5z"/>
		</g>
	</g>
</svg>